<!DOCTYPE svg PUBLIC "-//W3C//DTD SVG 1.1//EN" "http://www.w3.org/Graphics/SVG/1.1/DTD/svg11.dtd">
<!-- Uploaded to: SVG Repo, www.svgrepo.com, Transformed by: SVG Repo Mixer Tools -->
<svg fill="#21e916" width="128px" height="128px" viewBox="-3.6 -3.6 43.20 43.20" version="1.1" preserveAspectRatio="xMidYMid meet" xmlns="http://www.w3.org/2000/svg" xmlns:xlink="http://www.w3.org/1999/xlink" stroke="#21e916" transform="matrix(1, 0, 0, 1, 0, 0)rotate(45)" stroke-width="0.00036">
<g id="SVGRepo_bgCarrier" stroke-width="0"/>
<g id="SVGRepo_tracerCarrier" stroke-linecap="round" stroke-linejoin="round" stroke="#CCCCCC" stroke-width="0.072"/>
<g id="SVGRepo_iconCarrier"> <title>asterisk-solid</title> <path class="clr-i-solid clr-i-solid-path-1" d="M28.89,20.91l-5-2.91,4.87-2.86a3.11,3.11,0,0,0,1.14-1.08,3,3,0,0,0-4.09-4.15L21,12.76V7a3,3,0,0,0-6,0v5.76L10.15,9.91a3,3,0,1,0-3,5.18l5,2.91L7.2,20.86a3.11,3.11,0,0,0-1.14,1.08,3,3,0,0,0,4.09,4.14L15,23.24V28.9a3,3,0,0,0,2,2.94A3,3,0,0,0,21,29V23.24l4.85,2.85a3,3,0,1,0,3-5.18Z"/> <rect x="0" y="0" width="36" height="36" fill-opacity="0"/> </g>
</svg>